<?xml version="1.0" encoding="utf-8"?>
<!-- Generator: Adobe Illustrator 27.5.0, SVG Export Plug-In . SVG Version: 6.00 Build 0)  -->
<svg version="1.1" xmlns="http://www.w3.org/2000/svg" xmlns:xlink="http://www.w3.org/1999/xlink" x="0px" y="0px"
	 viewBox="0 0 750 500" style="enable-background:new 0 0 750 500;" xml:space="preserve">
<g id="BACKGROUND">
	<linearGradient id="SVGID_1_" gradientUnits="userSpaceOnUse" x1="375" y1="500" x2="375" y2="-9.094947e-13">
		<stop  offset="0" style="stop-color:#010040"/>
		<stop  offset="1" style="stop-color:#4733CA"/>
	</linearGradient>
	<rect style="fill:url(#SVGID_1_);" width="750" height="500"/>
</g>
<g id="OBJECTS">
	<g>
		<rect x="42.25" y="94.25" style="fill:none;stroke:#FFFFFF;stroke-miterlimit:10;" width="33" height="33"/>
		<rect x="85" y="334" style="fill:none;stroke:#FFFFFF;stroke-miterlimit:10;" width="19.5" height="19.5"/>
		<rect x="228" y="422" style="fill:#9FCCDD;" width="13.5" height="13.5"/>
		<rect x="380.25" y="163.25" style="fill:#9FCCDD;" width="19.5" height="19.5"/>
		
			<linearGradient id="SVGID_00000078766991025880494160000015247476910044188822_" gradientUnits="userSpaceOnUse" x1="717.25" y1="96.75" x2="737.75" y2="96.75">
			<stop  offset="0" style="stop-color:#5305E5"/>
			<stop  offset="1" style="stop-color:#BA1FA9"/>
		</linearGradient>
		
			<rect x="717.75" y="87" style="fill:none;stroke:url(#SVGID_00000078766991025880494160000015247476910044188822_);stroke-miterlimit:10;" width="19.5" height="19.5"/>
		<rect x="75.25" y="22.25" style="fill:#9FCCDD;" width="19.5" height="19.5"/>
		<rect x="476.25" y="269.5" style="fill:none;stroke:#FFFFFF;stroke-miterlimit:10;" width="19.5" height="19.5"/>
		<rect x="349.875" y="339.625" style="fill:none;stroke:#FFFFFF;stroke-miterlimit:10;" width="8.25" height="8.25"/>
		<rect x="197.875" y="127.75" style="fill:none;stroke:#FFFFFF;stroke-miterlimit:10;" width="8.25" height="8.25"/>
		<rect x="100.375" y="443.375" style="fill:none;stroke:#FFFFFF;stroke-miterlimit:10;" width="8.25" height="8.25"/>
		<rect x="472.125" y="168.875" style="fill:none;stroke:#FFFFFF;stroke-miterlimit:10;" width="8.25" height="8.25"/>
		<rect x="587.75" y="465.75" style="fill:none;stroke:#FFFFFF;stroke-miterlimit:10;" width="8.25" height="8.25"/>
		<rect x="532.25" y="77.25" style="fill:#9FCCDD;" width="19.5" height="19.5"/>
		<rect x="672.25" y="22.25" style="fill:#9FCCDD;" width="19.5" height="19.5"/>
		<rect x="610.25" y="230.5" style="fill:#9FCCDD;" width="19.5" height="19.5"/>
		
			<linearGradient id="SVGID_00000053512966591621509420000005560573088682493860_" gradientUnits="userSpaceOnUse" x1="652.75" y1="147" x2="672.25" y2="147">
			<stop  offset="0" style="stop-color:#5305E5"/>
			<stop  offset="1" style="stop-color:#BA1FA9"/>
		</linearGradient>
		
			<rect x="652.75" y="137.25" style="fill:url(#SVGID_00000053512966591621509420000005560573088682493860_);" width="19.5" height="19.5"/>
		
			<linearGradient id="SVGID_00000025434005482477057440000012232556856122121394_" gradientUnits="userSpaceOnUse" x1="357.625" y1="451.625" x2="378.125" y2="451.625">
			<stop  offset="0" style="stop-color:#5305E5"/>
			<stop  offset="1" style="stop-color:#BA1FA9"/>
		</linearGradient>
		
			<rect x="358.125" y="441.875" style="fill:none;stroke:url(#SVGID_00000025434005482477057440000012232556856122121394_);stroke-miterlimit:10;" width="19.5" height="19.5"/>
		
			<linearGradient id="SVGID_00000143582157502818491470000011513796857466098076_" gradientUnits="userSpaceOnUse" x1="697.75" y1="363.25" x2="718.25" y2="363.25">
			<stop  offset="0" style="stop-color:#5305E5"/>
			<stop  offset="1" style="stop-color:#BA1FA9"/>
		</linearGradient>
		
			<rect x="698.25" y="353.5" style="fill:none;stroke:url(#SVGID_00000143582157502818491470000011513796857466098076_);stroke-miterlimit:10;" width="19.5" height="19.5"/>
		<rect x="629.75" y="291.25" style="fill:none;stroke:#FFFFFF;stroke-miterlimit:10;" width="19.5" height="19.5"/>
		
			<linearGradient id="SVGID_00000075853298704017798260000001127213383342936216_" gradientUnits="userSpaceOnUse" x1="435.875" y1="389.75" x2="444.125" y2="389.75">
			<stop  offset="0" style="stop-color:#5305E5"/>
			<stop  offset="1" style="stop-color:#BA1FA9"/>
		</linearGradient>
		
			<rect x="435.875" y="385.625" style="fill:url(#SVGID_00000075853298704017798260000001127213383342936216_);" width="8.25" height="8.25"/>
		
			<linearGradient id="SVGID_00000121960342548930425810000016601746768310693565_" gradientUnits="userSpaceOnUse" x1="363.75" y1="255" x2="372" y2="255">
			<stop  offset="0" style="stop-color:#5305E5"/>
			<stop  offset="1" style="stop-color:#BA1FA9"/>
		</linearGradient>
		
			<rect x="363.75" y="250.875" style="fill:url(#SVGID_00000121960342548930425810000016601746768310693565_);" width="8.25" height="8.25"/>
		<rect x="694.125" y="192.625" style="fill:#9FCCDD;" width="8.25" height="8.25"/>
		<rect x="80.875" y="161.625" style="fill:#9FCCDD;" width="8.25" height="8.25"/>
		<rect x="484.375" y="469.875" style="fill:#9FCCDD;" width="8.25" height="8.25"/>
		<rect x="591.875" y="39.75" style="fill:none;stroke:#FFFFFF;stroke-miterlimit:10;" width="8.25" height="8.25"/>
		<rect x="228" y="259.75" style="fill:#9FCCDD;" width="19.5" height="19.5"/>
		
			<linearGradient id="SVGID_00000094598052632425669040000013302620799816882080_" gradientUnits="userSpaceOnUse" x1="32.25" y1="389.75" x2="51.75" y2="389.75">
			<stop  offset="0" style="stop-color:#5305E5"/>
			<stop  offset="1" style="stop-color:#BA1FA9"/>
		</linearGradient>
		
			<rect x="32.25" y="380" style="fill:url(#SVGID_00000094598052632425669040000013302620799816882080_);" width="19.5" height="19.5"/>
		<rect x="300.25" y="101" style="fill:none;stroke:#FFFFFF;stroke-miterlimit:10;" width="19.5" height="19.5"/>
		
			<linearGradient id="SVGID_00000018933611437608054010000013321209747355701947_" gradientUnits="userSpaceOnUse" x1="488.5" y1="120.5" x2="503" y2="120.5">
			<stop  offset="0" style="stop-color:#5305E5"/>
			<stop  offset="1" style="stop-color:#BA1FA9"/>
		</linearGradient>
		
			<rect x="488.5" y="113.25" style="fill:url(#SVGID_00000018933611437608054010000013321209747355701947_);" width="14.5" height="14.5"/>
		<rect x="522.5" y="370.25" style="fill:#9FCCDD;" width="19.5" height="19.5"/>
		
			<linearGradient id="SVGID_00000127021280751307855540000011981683118465147809_" gradientUnits="userSpaceOnUse" x1="656.5" y1="441.5" x2="668.5" y2="441.5">
			<stop  offset="0" style="stop-color:#5305E5"/>
			<stop  offset="1" style="stop-color:#BA1FA9"/>
		</linearGradient>
		
			<rect x="656.5" y="435.5" style="fill:url(#SVGID_00000127021280751307855540000011981683118465147809_);" width="12" height="12"/>
		<rect x="483.5" y="247.5" style="fill:#9FCCDD;" width="5" height="5"/>
		<rect x="297.986" y="387.25" style="fill:#9FCCDD;" width="5" height="5"/>
		<rect x="118" y="250" style="fill:#9FCCDD;" width="5" height="5"/>
		<rect x="560" y="160.75" style="fill:#9FCCDD;" width="5" height="5"/>
		<rect x="268.25" y="32" style="fill:#9FCCDD;" width="19.5" height="19.5"/>
		
			<linearGradient id="SVGID_00000095306437154892574490000012925589207176779148_" gradientUnits="userSpaceOnUse" x1="268.25" y1="240.25" x2="287.75" y2="240.25">
			<stop  offset="0" style="stop-color:#5305E5"/>
			<stop  offset="1" style="stop-color:#BA1FA9"/>
		</linearGradient>
		
			<rect x="268.25" y="230.5" style="fill:url(#SVGID_00000095306437154892574490000012925589207176779148_);" width="19.5" height="19.5"/>
		<rect x="160.75" y="47.25" style="fill:#9FCCDD;" width="8.5" height="8.5"/>
		<rect x="17.25" y="230.5" style="fill:#9FCCDD;" width="19.5" height="19.5"/>
		<rect x="399.75" y="36.25" style="fill:#9FCCDD;" width="15.25" height="15.25"/>
		
			<linearGradient id="SVGID_00000125585434067467781060000005956501046397609867_" gradientUnits="userSpaceOnUse" x1="139" y1="196.75" x2="158.5" y2="196.75">
			<stop  offset="0" style="stop-color:#5305E5"/>
			<stop  offset="1" style="stop-color:#BA1FA9"/>
		</linearGradient>
		
			<rect x="139" y="187" style="fill:url(#SVGID_00000125585434067467781060000005956501046397609867_);" width="19.5" height="19.5"/>
	</g>
</g>
</svg>
